<?xml version="1.0" encoding="utf-8"?>
<!-- Generator: Adobe Illustrator 21.0.0, SVG Export Plug-In . SVG Version: 6.00 Build 0)  -->
<svg version="1.1" xmlns="http://www.w3.org/2000/svg" xmlns:xlink="http://www.w3.org/1999/xlink" x="0px" y="0px"
	 viewBox="0 0 183 210" style="enable-background:new 0 0 183 210;" xml:space="preserve">
<style type="text/css">
	.st0{clip-path:url(#SVGID_2_);}
	.st1{fill:#FFFFFF;}
	.st2{font-family:'MinionPro-Regular';}
	.st3{font-size:31.7209px;}
	.st4{clip-path:url(#SVGID_4_);fill:#FFFFFF;}
	.st5{fill:none;}
	.st6{font-family:'AGaramondPro-Regular';}
	.st7{font-size:152.6636px;}
</style>
<g id="Layer_2">
</g>
<g id="Layer_1">
	<g>
		<defs>
			<rect id="SVGID_1_" x="-48.5" y="-7.9" width="417" height="235.3"/>
		</defs>
		<clipPath id="SVGID_2_">
			<use xlink:href="#SVGID_1_"  style="overflow:visible;"/>
		</clipPath>
		<g class="st0">
			<path class="st1" d="M17.5,108.8c0-10.9-0.5-14.4-7.7-15.1l-7.7-0.6c-1.3-0.6-1.4-2.9-0.2-3.5c13.5-2.4,22.3-6.6,26.5-9.3
				c0.6,0,1.3,0.3,1.6,0.8c-0.3,2.9-0.6,10.9-0.6,20.1v62.3c0,12.4,0.3,15.1,6.9,15.6l6.7,0.5c1,1,0.8,3.5-0.3,4
				c-6.3-0.3-13.5-0.5-19.1-0.5c-5.8,0-13,0.2-19.3,0.5c-1.1-0.5-1.3-3-0.3-4l6.6-0.5c6.7-0.5,6.9-3.2,6.9-15.6V108.8z"/>
			<path class="st1" d="M97.2,173c7.4,0,12.2-1,15.1-3.5c3.1-2.7,4.2-4.8,5.1-6.6c1.1-0.5,2.9,0,3.5,1c-2.1,8-5,16.4-7.4,19.6
				c-6.6-0.3-13.3-0.5-20.7-0.5H69.6c-9,0-14.3,0.2-17.8,0.5c-0.3-0.2-1.1-0.8-1.1-2.1c0-0.5,0.8-1.1,1.8-1.8
				c7.4-4.8,12.7-10.3,24.6-23.1c10.6-11.4,23-27,23-44.1c0-14.6-7.1-23.4-20.1-23.4c-9.6,0-16.5,6.6-20.9,16.1
				c-1.4,0.8-3.9,0-3.9-2.1C60.3,88.8,73,80.3,87.5,80.3c16.1,0,26.5,10.8,26.5,26.2c0,10-4.7,20.9-17.2,35.3L87,153
				c-13,15.2-14.6,17.7-14.6,18.6c0,1.1,0.8,1.4,5,1.4H97.2z"/>
		</g>
	</g>
	<g>
		<path class="st1" d="M5.1,199.3H2.2v-1.5h7.4v1.5H6.7v7.8H5.1V199.3z"/>
		<path class="st1" d="M11.3,197.8h1.7v3.7h4.4v-3.7h1.7v9.3h-1.7V203h-4.4v4.1h-1.7V197.8z"/>
		<path class="st1" d="M21.5,197.8h6.2v1.5h-4.5v2.3h4.3v1.5h-4.3v2.5H28v1.5h-6.4V197.8z"/>
		<path class="st1" d="M34.5,197.8h6v1.5h-4.4v2.5h4.1v1.5h-4.1v3.9h-1.7V197.8z"/>
		<path class="st1" d="M50.1,203.7c0,0.6-0.1,1.1-0.3,1.5c-0.2,0.5-0.5,0.8-0.8,1.2c-0.3,0.3-0.7,0.6-1.2,0.7
			c-0.5,0.2-1,0.3-1.5,0.3s-1-0.1-1.5-0.3c-0.5-0.2-0.9-0.4-1.2-0.7c-0.3-0.3-0.6-0.7-0.8-1.2c-0.2-0.5-0.3-1-0.3-1.5v-5.9h1.7v5.8
			c0,0.2,0,0.5,0.1,0.7c0.1,0.3,0.2,0.5,0.3,0.7c0.2,0.2,0.4,0.4,0.6,0.5c0.3,0.1,0.6,0.2,1,0.2c0.4,0,0.7-0.1,1-0.2
			c0.3-0.1,0.5-0.3,0.6-0.5c0.2-0.2,0.3-0.4,0.3-0.7c0.1-0.3,0.1-0.5,0.1-0.7v-5.8h1.7V203.7z"/>
		<path class="st1" d="M54.6,199.3h-2.9v-1.5h7.4v1.5h-2.9v7.8h-1.7V199.3z"/>
		<path class="st1" d="M68.2,203.7c0,0.6-0.1,1.1-0.3,1.5c-0.2,0.5-0.5,0.8-0.8,1.2c-0.3,0.3-0.7,0.6-1.2,0.7
			c-0.5,0.2-1,0.3-1.5,0.3c-0.5,0-1-0.1-1.5-0.3c-0.5-0.2-0.9-0.4-1.2-0.7c-0.3-0.3-0.6-0.7-0.8-1.2c-0.2-0.5-0.3-1-0.3-1.5v-5.9
			h1.7v5.8c0,0.2,0,0.5,0.1,0.7c0.1,0.3,0.2,0.5,0.3,0.7c0.2,0.2,0.4,0.4,0.6,0.5c0.3,0.1,0.6,0.2,1,0.2c0.4,0,0.7-0.1,1-0.2
			c0.3-0.1,0.5-0.3,0.6-0.5c0.2-0.2,0.3-0.4,0.3-0.7c0.1-0.3,0.1-0.5,0.1-0.7v-5.8h1.7V203.7z"/>
		<path class="st1" d="M70.8,197.8H74c0.4,0,0.9,0,1.3,0.1c0.4,0.1,0.8,0.2,1.1,0.4c0.3,0.2,0.6,0.5,0.8,0.8
			c0.2,0.3,0.3,0.8,0.3,1.3c0,0.7-0.2,1.2-0.6,1.7c-0.4,0.5-0.9,0.7-1.6,0.8l2.5,4.1h-2l-2.2-4h-1.2v4h-1.7V197.8z M73.7,201.7
			c0.2,0,0.5,0,0.7,0c0.2,0,0.5-0.1,0.7-0.2c0.2-0.1,0.4-0.2,0.5-0.4c0.1-0.2,0.2-0.4,0.2-0.7c0-0.3-0.1-0.5-0.2-0.7
			c-0.1-0.2-0.3-0.3-0.4-0.4c-0.2-0.1-0.4-0.1-0.6-0.2c-0.2,0-0.4,0-0.7,0h-1.4v2.5H73.7z"/>
		<path class="st1" d="M79.6,197.8h6.2v1.5h-4.5v2.3h4.3v1.5h-4.3v2.5H86v1.5h-6.4V197.8z"/>
		<path class="st1" d="M92.1,202.5c0-0.7,0.1-1.4,0.4-2c0.2-0.6,0.6-1.1,1-1.6c0.4-0.4,1-0.8,1.6-1c0.6-0.2,1.3-0.3,2-0.3
			c0.7,0,1.4,0.1,2,0.3c0.6,0.2,1.1,0.6,1.6,1c0.4,0.4,0.8,0.9,1,1.6c0.2,0.6,0.4,1.3,0.4,2c0,0.7-0.1,1.4-0.4,2
			c-0.2,0.6-0.6,1.1-1,1.5c-0.4,0.4-1,0.8-1.6,1c-0.6,0.2-1.3,0.4-2,0.4c-0.7,0-1.4-0.1-2-0.3c-0.6-0.2-1.1-0.6-1.6-1
			c-0.4-0.4-0.8-0.9-1-1.5C92.2,203.9,92.1,203.2,92.1,202.5z M93.8,202.4c0,0.5,0.1,1,0.2,1.4c0.2,0.4,0.4,0.8,0.7,1.1
			c0.3,0.3,0.6,0.5,1,0.7c0.4,0.2,0.8,0.3,1.3,0.3s0.9-0.1,1.3-0.3c0.4-0.2,0.7-0.4,1-0.7s0.5-0.7,0.7-1.1c0.2-0.4,0.2-0.9,0.2-1.4
			c0-0.5-0.1-0.9-0.2-1.3c-0.2-0.4-0.4-0.8-0.7-1.1s-0.6-0.5-1-0.7c-0.4-0.2-0.8-0.3-1.3-0.3s-0.9,0.1-1.3,0.3
			c-0.4,0.2-0.7,0.4-1,0.7c-0.3,0.3-0.5,0.7-0.7,1.1C93.9,201.5,93.8,201.9,93.8,202.4z"/>
		<path class="st1" d="M104.1,197.8h6v1.5h-4.4v2.5h4.1v1.5h-4.1v3.9h-1.7V197.8z"/>
		<path class="st1" d="M116.6,197.8h2.2l4.5,6.9h0v-6.9h1.7v9.3h-2.1l-4.6-7.2h0v7.2h-1.7V197.8z"/>
		<path class="st1" d="M135.1,203.7c0,0.6-0.1,1.1-0.3,1.5s-0.5,0.8-0.8,1.2c-0.3,0.3-0.7,0.6-1.2,0.7c-0.5,0.2-1,0.3-1.5,0.3
			c-0.5,0-1-0.1-1.5-0.3c-0.5-0.2-0.9-0.4-1.2-0.7c-0.3-0.3-0.6-0.7-0.8-1.2c-0.2-0.5-0.3-1-0.3-1.5v-5.9h1.7v5.8
			c0,0.2,0,0.5,0.1,0.7s0.2,0.5,0.3,0.7c0.2,0.2,0.4,0.4,0.6,0.5c0.3,0.1,0.6,0.2,1,0.2s0.7-0.1,1-0.2c0.3-0.1,0.5-0.3,0.6-0.5
			c0.2-0.2,0.3-0.4,0.3-0.7c0.1-0.3,0.1-0.5,0.1-0.7v-5.8h1.7V203.7z"/>
		<path class="st1" d="M137.6,197.8h3.2c0.4,0,0.9,0,1.3,0.1c0.4,0.1,0.8,0.2,1.1,0.4c0.3,0.2,0.6,0.5,0.8,0.8
			c0.2,0.3,0.3,0.8,0.3,1.3c0,0.7-0.2,1.2-0.6,1.7c-0.4,0.5-0.9,0.7-1.6,0.8l2.5,4.1h-2l-2.2-4h-1.2v4h-1.7V197.8z M140.6,201.7
			c0.2,0,0.5,0,0.7,0c0.2,0,0.5-0.1,0.7-0.2c0.2-0.1,0.4-0.2,0.5-0.4c0.1-0.2,0.2-0.4,0.2-0.7c0-0.3-0.1-0.5-0.2-0.7
			c-0.1-0.2-0.3-0.3-0.4-0.4c-0.2-0.1-0.4-0.1-0.6-0.2c-0.2,0-0.4,0-0.7,0h-1.4v2.5H140.6z"/>
		<path class="st1" d="M151,199.8c-0.2-0.3-0.4-0.4-0.7-0.6c-0.3-0.1-0.6-0.2-0.9-0.2c-0.2,0-0.4,0-0.6,0.1c-0.2,0-0.3,0.1-0.5,0.2
			c-0.1,0.1-0.3,0.2-0.3,0.4c-0.1,0.2-0.1,0.3-0.1,0.5c0,0.3,0.1,0.6,0.3,0.7c0.2,0.2,0.5,0.3,0.8,0.4s0.7,0.2,1.1,0.4
			c0.4,0.1,0.7,0.3,1.1,0.5c0.3,0.2,0.6,0.5,0.8,0.8c0.2,0.3,0.3,0.8,0.3,1.3c0,0.5-0.1,0.9-0.3,1.3c-0.2,0.4-0.4,0.7-0.7,0.9
			c-0.3,0.2-0.7,0.4-1.1,0.6c-0.4,0.1-0.8,0.2-1.3,0.2c-0.6,0-1.1-0.1-1.7-0.3c-0.5-0.2-1-0.5-1.4-1l1.3-1.2
			c0.2,0.3,0.5,0.5,0.8,0.7c0.3,0.2,0.7,0.3,1,0.3c0.2,0,0.4,0,0.6-0.1c0.2-0.1,0.4-0.1,0.5-0.2s0.3-0.2,0.4-0.4
			c0.1-0.2,0.1-0.3,0.1-0.6c0-0.3-0.1-0.6-0.3-0.8c-0.2-0.2-0.5-0.3-0.8-0.5c-0.3-0.1-0.7-0.2-1.1-0.4c-0.4-0.1-0.7-0.3-1.1-0.5
			c-0.3-0.2-0.6-0.5-0.8-0.8c-0.2-0.3-0.3-0.8-0.3-1.3c0-0.5,0.1-0.9,0.3-1.3c0.2-0.4,0.5-0.6,0.8-0.9c0.3-0.2,0.7-0.4,1.1-0.5
			c0.4-0.1,0.8-0.2,1.3-0.2c0.5,0,1,0.1,1.4,0.2c0.5,0.2,0.9,0.4,1.2,0.7L151,199.8z"/>
		<path class="st1" d="M154.5,197.8h1.7v9.3h-1.7V197.8z"/>
		<path class="st1" d="M158.8,197.8h2.2l4.5,6.9h0v-6.9h1.7v9.3H165l-4.6-7.2h0v7.2h-1.7V197.8z"/>
		<path class="st1" d="M178,206.4c-1.2,0.6-2.4,0.9-3.9,0.9c-0.7,0-1.4-0.1-2-0.3c-0.6-0.2-1.1-0.6-1.6-1c-0.4-0.4-0.8-0.9-1-1.5
			c-0.2-0.6-0.4-1.3-0.4-2c0-0.7,0.1-1.4,0.4-2c0.2-0.6,0.6-1.1,1-1.6c0.4-0.4,1-0.8,1.6-1c0.6-0.2,1.3-0.3,2-0.3
			c0.7,0,1.4,0.1,2,0.3c0.6,0.2,1.2,0.5,1.7,0.9l-1.2,1.2c-0.3-0.3-0.7-0.5-1.1-0.7c-0.4-0.2-0.9-0.2-1.4-0.2
			c-0.5,0-0.9,0.1-1.3,0.3c-0.4,0.2-0.7,0.4-1,0.7c-0.3,0.3-0.5,0.7-0.7,1.1c-0.2,0.4-0.2,0.8-0.2,1.3c0,0.5,0.1,1,0.2,1.4
			c0.2,0.4,0.4,0.8,0.7,1.1c0.3,0.3,0.6,0.5,1,0.7c0.4,0.2,0.8,0.3,1.3,0.3c0.4,0,0.8,0,1.2-0.1c0.4-0.1,0.7-0.2,1-0.4v-2.2h-1.9
			v-1.5h3.6V206.4z"/>
	</g>
	<g>
		<path class="st1" d="M25,19.6c-0.4,1.5-1.2,3.8-1.8,4.9c-0.9,0.2-3.6,0.9-5.8,0.9C9.4,25.3,6,19.8,6,14.8C6,8.1,11.1,3.7,18.2,3.7
			c2.6,0,4.7,0.7,5.6,0.9c0.3,1.8,0.4,3.1,0.6,4.8l-1,0.2c-0.8-3.4-2.7-4.7-6.2-4.7c-5.3,0-8.1,4.5-8.1,9.3c0,5.9,3.5,10,8.3,10
			c3.2,0,4.9-1.7,6.5-4.9L25,19.6z"/>
		<path class="st1" d="M50.4,14.2c0,6.8-4.8,11-10.6,11c-5.7,0-10.3-4.5-10.3-10.6c0-5.7,4-11,10.7-11C45.5,3.7,50.4,7.9,50.4,14.2z
			 M32.7,13.8c0,6,3.3,10.3,7.7,10.3c3.5,0,6.7-2.9,6.7-9c0-6.7-3.5-10.2-7.6-10.2C35.9,4.8,32.7,7.9,32.7,13.8z"/>
		<path class="st1" d="M70.4,19.8c-0.2,1-0.9,4-1.1,5H54.8v-0.9c2.7-0.2,2.9-0.4,2.9-3.1V8.1c0-2.7-0.2-2.9-2.8-3V4.2h8.3v0.9
			c-2.5,0.2-2.8,0.3-2.8,3v12.5c0,1.7,0.2,2.3,0.7,2.7c0.6,0.3,1.7,0.4,3,0.4c1.7,0,2.8-0.2,3.6-1c0.5-0.6,1.1-1.6,1.6-3.1
			L70.4,19.8z"/>
		<path class="st1" d="M94.4,5.1c-1.9,0.1-2.6,0.6-2.8,1.9c-0.1,0.9-0.2,2.2-0.2,5.1v2.6c0,3.7-0.6,6.4-2.4,8.4
			c-1.5,1.5-3.6,2.2-5.7,2.2c-1.8,0-3.7-0.4-5.1-1.5c-1.9-1.5-2.8-3.8-2.8-7.5V8.3c0-2.9-0.3-3-2.8-3.2V4.2h8.2v0.9
			c-2.5,0.2-2.8,0.3-2.8,3.2v7.2c0,5.1,2,8,6,8c4.6,0,6-3.8,6-9v-2.4c0-2.9-0.1-4.2-0.2-5.2c-0.2-1.2-0.9-1.6-3.1-1.8V4.2h7.5V5.1z"
			/>
		<path class="st1" d="M115.7,24.8v-0.9c2.6-0.3,2.7-0.4,2.7-3.8l-0.1-12.9h-0.1l-7.7,17.4h-0.6l-7.1-16.9h-0.1l-0.5,9
			c-0.1,2.6-0.1,4-0.1,5.3c0.1,1.5,0.8,1.7,2.9,2v0.9h-7.4v-0.9c1.8-0.2,2.5-0.6,2.7-1.9c0.2-1.1,0.3-2.5,0.6-5.8l0.4-6.6
			c0.3-4.1,0.1-4.2-2.8-4.5V4.2h5.2L111,20l7.3-15.9h5.4v0.9c-2.8,0.3-3,0.3-2.9,3.6l0.3,11.5c0.1,3.4,0.2,3.5,2.9,3.8v0.9H115.7z"
			/>
		<path class="st1" d="M139,13.7c3.1,0.5,5.6,1.9,5.6,5c0,2.1-1.2,3.7-3,4.8c-1.6,0.9-3.7,1.3-6.2,1.3h-7v-0.9
			c2.7-0.2,2.9-0.4,2.9-3V8.1c0-2.6-0.1-2.8-2.7-3V4.2h8.1c2.4,0,3.8,0.4,4.8,1.1c1.1,0.8,1.8,2.2,1.8,3.6
			C143.3,11.9,140.8,13.1,139,13.7L139,13.7z M135.4,13.3c3.5,0,4.9-1.4,4.9-4.1c0-2.2-1.2-4.1-4.2-4.1c-0.8,0-1.5,0.1-1.8,0.3
			C134.1,5.7,134,6,134,7.1v6.2H135.4z M134,20.8c0,2.3,0.6,2.9,2.6,2.9c2.6,0,4.9-1.4,4.9-4.7c0-3.3-2.2-4.7-6.1-4.7H134V20.8z"/>
		<path class="st1" d="M149.2,24.8v-0.9c2.6-0.2,2.9-0.4,2.9-3.1V8.1c0-2.7-0.3-2.9-2.9-3.1V4.2h8.4v0.9c-2.6,0.2-2.9,0.4-2.9,3.1
			v12.7c0,2.7,0.3,2.9,2.9,3.1v0.9H149.2z"/>
		<path class="st1" d="M173.4,24.8v-0.9c2-0.3,2.3-0.5,1.9-1.7c-0.4-1.2-1-2.9-1.7-4.9h-6.8c-0.5,1.4-1,2.8-1.4,4.1
			c-0.7,2-0.4,2.3,2,2.5v0.9h-6.9v-0.9c2-0.3,2.4-0.5,3.6-3.3L170.6,4l1-0.3c2,5.5,4.1,11.5,6.1,17c1,2.7,1.4,3,3.5,3.2v0.9H173.4z
			 M170.3,7.8L170.3,7.8c-1.1,2.7-2.1,5.5-3,8.1h5.8L170.3,7.8z"/>
	</g>
	<g>
		<path class="st1" d="M66.7,40.6c-1.8,0.1-2.5,0.5-2.7,1.9c-0.1,1-0.2,2.4-0.2,5.3v12.8h-1L49.4,44h-0.1v8c0,2.9,0.1,4.4,0.2,5.4
			c0.2,1.6,0.9,2,3,2.1v0.9H45v-0.9c1.8-0.1,2.6-0.5,2.8-2.1c0.1-1,0.2-2.5,0.2-5.4v-7c0-2.3-0.1-2.4-0.6-3.2
			c-0.6-0.8-1.3-1-2.8-1.2v-0.9h4.7l13.2,15.9h0.1v-7.8c0-2.9-0.1-4.4-0.2-5.3c-0.2-1.4-0.9-1.8-3.1-2v-0.9h7.5V40.6z"/>
		<path class="st1" d="M90.2,40.6c-1.9,0.1-2.6,0.6-2.8,1.9c-0.1,0.9-0.2,2.2-0.2,5.1v2.6c0,3.7-0.6,6.4-2.4,8.4
			c-1.5,1.5-3.6,2.2-5.7,2.2c-1.8,0-3.7-0.4-5.1-1.5c-1.9-1.5-2.8-3.8-2.8-7.5v-7.9c0-2.9-0.3-3-2.8-3.2v-0.9h8.2v0.9
			c-2.5,0.2-2.8,0.3-2.8,3.2V51c0,5.1,2,8,6,8c4.6,0,6-3.8,6-9v-2.4c0-2.9-0.1-4.2-0.2-5.2c-0.2-1.2-0.9-1.6-3.1-1.8v-0.9h7.5V40.6z
			"/>
		<path class="st1" d="M110.7,60.6c-0.4,0-0.7,0-1.1,0c-2.4-0.1-3.7-0.8-5.1-2.9c-1.1-1.6-2.3-3.5-3.2-5.1c-0.5-0.9-1.1-1.3-2.7-1.3
			h-1v5c0,2.7,0.3,2.9,2.8,3.1v0.9H92v-0.9c2.6-0.2,2.9-0.4,2.9-3.1V43.6c0-2.7-0.3-2.8-2.7-3v-0.9h7.9c2.3,0,3.9,0.3,5.1,1.1
			c1.3,0.8,2.1,2.3,2.1,4.2c0,2.7-1.7,4.4-4,5.4c0.5,1,1.9,3.2,2.8,4.6c1.1,1.6,1.8,2.5,2.6,3.3c0.9,1,1.6,1.3,2.3,1.5L110.7,60.6z
			 M99.1,50.3c1.6,0,2.7-0.3,3.5-0.9c1.2-1,1.7-2.2,1.7-3.9c0-3.4-2.3-4.7-4.7-4.7c-0.9,0-1.5,0.1-1.7,0.3c-0.2,0.2-0.3,0.5-0.3,1.4
			v7.8H99.1z"/>
		<path class="st1" d="M122.6,44.5c-0.6-2-1.4-4.2-4.2-4.2c-2.4,0-3.5,1.8-3.5,3.5c0,2.3,1.5,3.4,4,4.7c2.5,1.3,5.5,2.8,5.5,6.3
			c0,3.3-2.8,6-7,6c-1.3,0-2.3-0.3-3.1-0.5c-0.8-0.3-1.3-0.5-1.6-0.7c-0.3-0.7-0.7-3.4-0.9-4.9l0.9-0.2c0.5,1.9,1.9,5.1,5.2,5.1
			c2.4,0,3.8-1.5,3.8-3.8c0-2.3-1.7-3.5-4.1-4.7c-2-1.1-5.2-2.7-5.2-6.2c0-3,2.4-5.6,6.5-5.6c1.5,0,2.8,0.3,4,0.7
			c0.1,1.1,0.3,2.4,0.5,4.4L122.6,44.5z"/>
		<path class="st1" d="M126.4,60.3v-0.9c2.6-0.2,2.9-0.4,2.9-3.1V43.7c0-2.7-0.3-2.9-2.9-3.1v-0.9h8.4v0.9c-2.6,0.2-2.9,0.4-2.9,3.1
			v12.7c0,2.7,0.3,2.9,2.9,3.1v0.9H126.4z"/>
		<path class="st1" d="M158.8,40.6c-1.8,0.1-2.5,0.5-2.7,1.9c-0.1,1-0.2,2.4-0.2,5.3v12.8h-1L141.5,44h-0.1v8c0,2.9,0.1,4.4,0.2,5.4
			c0.2,1.6,0.9,2,3,2.1v0.9h-7.5v-0.9c1.8-0.1,2.6-0.5,2.8-2.1c0.1-1,0.2-2.5,0.2-5.4v-7c0-2.3-0.1-2.4-0.6-3.2
			c-0.6-0.8-1.3-1-2.8-1.2v-0.9h4.7l13.2,15.9h0.1v-7.8c0-2.9-0.1-4.4-0.2-5.3c-0.2-1.4-0.9-1.8-3.1-2v-0.9h7.5V40.6z"/>
		<path class="st1" d="M181.3,51.6c-1.9,0.3-2,0.4-2,2.3v2.7c0,1.1,0,2.1,0.2,3c-2,0.5-4.6,1.2-7.1,1.2c-7,0-11.6-4.3-11.6-10.6
			c0-7.4,5.9-10.9,12.1-10.9c2.6,0,5.1,0.7,6.1,0.9c0.1,1.1,0.3,2.9,0.5,4.9l-0.9,0.2c-0.8-3.9-3.2-4.9-6.2-4.9
			c-4.9,0-8.4,3.6-8.4,9.4c0,4.6,2.7,9.9,8.8,9.9c1.1,0,2.1-0.2,2.8-0.6c0.6-0.3,1-0.7,1-2.1v-2.7c0-2.3-0.2-2.5-3.3-2.7v-0.9h8.1
			V51.6z"/>
	</g>
	<text transform="matrix(1 0 0 1 182.0146 60.3188)" class="st2 st3"> </text>
	<rect x="7.8" y="58.7" class="st1" width="25.9" height="2.1"/>
	<g>
		<defs>
			<rect id="SVGID_3_" x="-48.5" y="-7.9" width="417" height="235.3"/>
		</defs>
		<clipPath id="SVGID_4_">
			<use xlink:href="#SVGID_3_"  style="overflow:visible;"/>
		</clipPath>
		<path class="st4" d="M34.9,49.3c-1.7,2.9-3.3,5.7-5.4,5.7c-0.6,0-1.6-0.6-1.2-2.1l1.9-2c0.1-0.1,0.2-0.3,0.1-0.5l-1.2-2.6
			c-0.1-0.2-0.2-0.1-0.4,0l-2.6,2.6c-0.1,0.1-0.2,0.3-0.1,0.5l0.8,1.9c-0.3,1.3-1.1,2.2-2.2,2.1c-1.9-0.1-3.4-3.7-1.1-8.7
			c0.4-0.8,0.5-1.5,0.5-2.2c4.3-1.9,9.7-4,11.8-1.4C37.2,44.4,36.6,46.5,34.9,49.3 M16.9,55c-1,0.1-1.8-0.9-2.2-2.1l0.8-1.9
			c0.1-0.2,0-0.4-0.1-0.5l-2.6-2.6c-0.1-0.1-0.3-0.2-0.4,0l-1.2,2.6c-0.1,0.2,0,0.4,0.1,0.5l1.9,2c0.4,1.5-0.6,2.1-1.2,2.1
			c-2.1,0-3.7-2.8-5.4-5.7c-1.7-2.9-2.2-5-1-6.5c2.1-2.6,7.6-0.6,11.8,1.4c0,0.6,0.1,1.3,0.5,2.2C20.2,51.4,18.7,54.9,16.9,55
			 M37,41.4c-2.8-2.7-7.7-1-13.2,0.7c-0.3,0.1-0.6,0-0.9-0.2c-0.2-0.2-0.5-0.4-0.7-0.5c0.8-0.5,1.3-1.3,1.3-2.3c0-1.3-1-2.4-2.2-2.6
			l1-1.3c0.1-0.1,0.1-0.3,0-0.5L21,33.3c0-0.1-0.1-0.1-0.2-0.1c-0.1,0-0.1,0-0.2,0.1l-1.2,1.6c-0.1,0.1-0.1,0.3,0,0.5l1,1.3
			c-1.3,0.2-2.2,1.3-2.2,2.6c0,1,0.5,1.8,1.3,2.3c-0.3,0.1-0.5,0.3-0.7,0.5c-0.3,0.2-0.6,0.3-0.9,0.2c-5.5-1.8-10.4-3.5-13.2-0.7
			C1.3,44.7,5.2,50,6.4,52.1c0.9,1.5,1.5,3.3,1.5,4.7h13h13c0-1.4,0.6-3.2,1.5-4.7C36.5,50,40.3,44.7,37,41.4"/>
	</g>
	<rect x="114.6" y="71.2" class="st5" width="115.7" height="115.7"/>
	<text transform="matrix(1 0 0 1 114.5625 180.3389)" class="st1 st6 st7">5</text>
</g>
</svg>
